<?xml version="1.0" encoding="UTF-8" standalone="no"?>
<svg
   xmlns:dc="http://purl.org/dc/elements/1.1/"
   xmlns:cc="http://creativecommons.org/ns#"
   xmlns:rdf="http://www.w3.org/1999/02/22-rdf-syntax-ns#"
   xmlns:svg="http://www.w3.org/2000/svg"
   xmlns="http://www.w3.org/2000/svg"
   xmlns:sodipodi="http://sodipodi.sourceforge.net/DTD/sodipodi-0.dtd"
   xmlns:inkscape="http://www.inkscape.org/namespaces/inkscape"
   width="128"
   height="128"
   viewBox="0 0 33.866666 33.866666"
   version="1.1"
   id="svg8"
   inkscape:version="1.0.1 (3bc2e813f5, 2020-09-07)"
   sodipodi:docname="pin.svg"
   inkscape:export-filename="C:\Users\nomad\Desktop\128.png"
   inkscape:export-xdpi="96"
   inkscape:export-ydpi="96">
  <defs
     id="defs2" />
  <sodipodi:namedview
     id="base"
     pagecolor="#ffffff"
     bordercolor="#666666"
     borderopacity="1.0"
     inkscape:pageopacity="0.0"
     inkscape:pageshadow="2"
     inkscape:zoom="1.4"
     inkscape:cx="-17.686593"
     inkscape:cy="66.945577"
     inkscape:document-units="px"
     inkscape:current-layer="g872"
     inkscape:document-rotation="0"
     showgrid="false"
     units="px"
     inkscape:window-width="1920"
     inkscape:window-height="1013"
     inkscape:window-x="-9"
     inkscape:window-y="-9"
     inkscape:window-maximized="1" />
  <metadata
     id="metadata5">
    <rdf:RDF>
      <cc:Work
         rdf:about="">
        <dc:format>image/svg+xml</dc:format>
        <dc:type
           rdf:resource="http://purl.org/dc/dcmitype/StillImage" />
        <dc:title></dc:title>
      </cc:Work>
    </rdf:RDF>
  </metadata>
  <g
     inkscape:label="Layer 1"
     inkscape:groupmode="layer"
     id="layer1">
    <g
       id="g872"
       transform="translate(-0.0442188,-0.04560282)">
      <path
         style="fill:#c0c0c0;stroke-width:0.0549247;fill-opacity:1"
         d="M 4.3712666,28.486632 12.523598,20.475644 10.441144,18.3378 C 8.0570212,15.890269 8.0967422,15.944331 8.1050392,15.153715 c 0.0043,-0.412507 0.02777,-0.538956 0.141588,-0.764207 0.182104,-0.360399 1.006049,-1.170086 1.392175,-1.368083 l 0.302934,-0.155338 2.1146258,0.0085 c 1.163045,0.0046 2.17656,-0.0047 2.252256,-0.0209 0.132049,-0.02817 5.154064,-4.8733579 5.278448,-5.0925905 0.04347,-0.076598 0.0087,-0.1692875 -0.16075,-0.4289536 -0.3311,-0.5073095 -0.359976,-1.0884222 -0.07742,-1.5580636 0.204242,-0.3394853 1.346059,-1.4007714 1.669371,-1.551639 0.220051,-0.102687 0.365052,-0.1279061 0.715371,-0.1244311 0.784779,0.00778 0.567646,-0.177814 4.500695,3.8470258 3.925199,4.016812 3.717415,3.761047 3.700499,4.554822 -0.01268,0.596616 -0.14401,0.826774 -0.910609,1.59626 -0.74835,0.751161 -1.017716,0.910748 -1.525137,0.903567 -0.354018,-0.005 -0.634274,-0.109812 -0.952185,-0.356064 -0.103424,-0.08011 -0.221925,-0.128437 -0.273465,-0.111526 -0.10463,0.03433 -5.086304,4.877659 -5.186725,5.042682 -0.04699,0.07722 -0.08123,0.751775 -0.117009,2.305732 l -0.05058,2.196575 -0.138099,0.273185 c -0.184876,0.365724 -1.057081,1.22143 -1.417393,1.390576 -0.228882,0.107453 -0.36039,0.128683 -0.770297,0.124367 -0.790637,-0.0083 -0.73739,0.03249 -3.134194,-2.402617 L 13.365695,21.335638 5.214866,29.34515 3.9249696,29.769064 Z m 14.9192324,-4.204604 0.477811,-0.459432 0.05076,-2.212729 c 0.04963,-2.163709 0.05362,-2.218784 0.179993,-2.486007 0.103502,-0.21886 0.661936,-0.795737 2.804346,-2.896957 1.743363,-1.709912 2.752015,-2.659759 2.895908,-2.727286 0.4994,-0.234332 1.030524,-0.178434 1.49199,0.157024 0.143932,0.104625 0.296127,0.190594 0.338211,0.19104 0.04209,4.39e-4 0.322145,-0.235482 0.622349,-0.524283 0.555036,-0.533917 0.703382,-0.770822 0.634643,-1.013329 -0.05428,-0.191473 -6.75725,-7.0240298 -6.929889,-7.0638562 -0.0787,-0.018154 -0.215644,-0.00677 -0.304307,0.025296 -0.207216,0.074947 -1.24305,1.0796569 -1.244387,1.2069972 -5.57e-4,0.053165 0.0814,0.2070287 0.182129,0.341915 0.340837,0.4564095 0.375264,1.0142446 0.09372,1.5188046 -0.09366,0.1678599 -1.042145,1.1344707 -2.787681,2.8409674 -2.117673,2.070301 -2.700783,2.611181 -2.921647,2.710003 -0.269833,0.120731 -0.324916,0.123555 -2.489246,0.127628 l -2.213307,0.0042 -0.4694158,0.468007 c -0.402968,0.40187 -0.469613,0.494362 -0.470986,0.654174 -8.59e-4,0.102379 0.04116,0.248385 0.09342,0.32446 0.110377,0.160677 8.8443438,9.075365 9.0049228,9.191253 0.05915,0.04268 0.191966,0.07849 0.295174,0.07957 0.161502,0.0017 0.254223,-0.06204 0.66546,-0.457456 z"
         id="path847"
         sodipodi:nodetypes="ccsssscccscsssscscsssccsssscccccssssssssscscsssscsccssccc" />
      <path
         id="rect850"
         style="fill:#ff0000;fill-opacity:1;stroke:none;stroke-width:0.282001;stroke-linejoin:round;stroke-miterlimit:4;stroke-dasharray:none;stroke-opacity:1"
         d="m 29.179023,17.692952 -5.232755,5.232755 -5.141288,-5.141805 -0.851111,0.851111 5.141805,5.141289 -5.141805,5.141804 0.851111,0.851111 5.141288,-5.141288 5.232755,5.232239 0.851111,-0.851111 -5.232239,-5.232755 5.232239,-5.232239 z" />
    </g>
  </g>
</svg>
